<?xml version="1.0" encoding="utf-8"?>
<!-- Generator: Adobe Illustrator 15.0.0, SVG Export Plug-In . SVG Version: 6.00 Build 0)  -->
<!DOCTYPE svg PUBLIC "-//W3C//DTD SVG 1.1//EN" "http://www.w3.org/Graphics/SVG/1.1/DTD/svg11.dtd">
<svg version="1.1" id="Layer_1" xmlns="http://www.w3.org/2000/svg" xmlns:xlink="http://www.w3.org/1999/xlink" x="0px" y="0px"
	 width="37.907px" height="39.78px" viewBox="0 0 37.907 39.78" enable-background="new 0 0 37.907 39.78" xml:space="preserve">
<g>
	<path fill="#194276" d="M16.182,31.585v-10.13h-3.377l-7.683,10.13H0.599l8.403-11.079c-1.914-0.973-3.279-2.026-4.096-3.158
		s-1.225-2.545-1.225-4.24c0-2.466,1.176-4.186,3.528-5.16c1.1-0.468,3.067-0.702,5.9-0.702h6.81v24.339H16.182z M16.182,10.054
		h-2.295c-2.378,0-4.009,0.26-4.895,0.779c-0.885,0.52-1.328,1.483-1.328,2.89c0,1.509,0.588,2.707,1.765,3.594
		c1.176,0.887,2.77,1.331,4.78,1.331h1.973V10.054z"/>
</g>
<g>
	<path fill="#2C8C99" d="M23.409,31.593V7.253h14.483l0.016,2.808H27.146v8.563h7.84v2.797l-7.84,0.016v10.157H23.409z"/>
</g>
<g>
</g>
</svg>
